# xmcd
#
# Track frame offsets:
#	150
#	13307
#	24927
#	36231
#	48980
#	61281
#	71906
#	84860
#	95223
#	106056
#	118283
#	131324
#	144038
#	155197
#	167308
#	177603
#	187446
#	198480
#	209787
#	222393
#	233455
#	243911
#	255185
#	266977
#	279235
#
# Disc length: 3860 seconds
#
# Revision: 1
# Processed by: cddbd v1.5.2PL0 Copyright (c) Steve Scherf et al.
# Submitted via: audiograbber 1.83.01
#
DISCID=710f1219
DTITLE=Various Artist - Country's Greatest Hits CD2
DYEAR=2008
DGENRE=Country
TTITLE0=Leroy Van Dyke - The auctioneer
TTITLE1=Patsy Cline - Walkin' after midnight
TTITLE2=Marty Robbins - A white sport coat (and a pink carnation)
TTITLE3=Jim Reeves - Four walls
TTITLE4=Johnny Cash - I walk the line
TTITLE5=Jimmie Rodgers - Kisses sweeter than wine
TTITLE6=Bobby Helms - Freulein
TTITLE7=Chet Atkins - Mister Sandman
TTITLE8=Slim Whitman - Rose Marie
TTITLE9=George Jones - Just one more
TTITLE10=Hank Williams - Jambalaya (On the bayou)
TTITLE11=Hank Snow - I'm movin' on
TTITLE12=Patsy Cline - Hidin' out
TTITLE13=Faron Young - Goin' steady
TTITLE14=Kitty Wells - Make your mind up
TTITLE15=Johnny Cash - Ballad of a teenage queen
TTITLE16=Carl Perkins - Dixie Fried
TTITLE17=Carl Smith - Hey Joe!
TTITLE18=Tex Ritter - High noon
TTITLE19=Mary Robbins - Singing the blues
TTITLE20=June Carter - Jukebox blues
TTITLE21=Jim Reeves - Penny Candy
TTITLE22=Tennessee Ernie Ford - Sixteen tons
TTITLE23=Hank Thompson - The wild side of life
TTITLE24=George Jones - Why baby whyﬂ
EXTD=
EXTT0=
EXTT1=
EXTT2=
EXTT3=
EXTT4=
EXTT5=
EXTT6=
EXTT7=
EXTT8=
EXTT9=
EXTT10=
EXTT11=
EXTT12=
EXTT13=
EXTT14=
EXTT15=
EXTT16=
EXTT17=
EXTT18=
EXTT19=
EXTT20=
EXTT21=
EXTT22=
EXTT23=
EXTT24=
PLAYORDER=
